{
  "accessors": [
    {
      "bufferView": 2,
      "componentType": 5126,
      "count": 38,
      "max": [
        0.18986900150775909,
        0.2333340048789978,
        0.1677439957857132
      ],
      "min": [
        -0.18986900150775909,
        0.15219800174236298,
        -0.1677439957857132
      ],
      "type": "VEC3"
    },
    {
      "bufferView": 2,
      "byteOffset": 456,
      "componentType": 5126,
      "count": 38,
      "max": [
        0.97647601366043091,
        0.25296390056610107,
        0.96683502197265625
      ],
      "min": [
        -0.97647625207901001,
        0.19716699421405792,
        -0.96683502197265625
      ],
      "type": "VEC3"
    },
    {
      "bufferView": 3,
      "componentType": 5126,
      "count": 38,
      "max": [
        0.98503696918487549,
        0.28475797176361084,
        0.99999922513961792,
        1
      ],
      "min": [
        -0.98503869771957397,
        -0.28447055816650391,
        -0.96162116527557373,
        1
      ],
      "type": "VEC4"
    },
    {
      "bufferView": 1,
      "componentType": 5126,
      "count": 38,
      "max": [
        0.52421301603317261,
        0.6527780294418335
      ],
      "min": [
        0.019999999552965164,
        0.6463630199432373
      ],
      "type": "VEC2"
    },
    {
      "bufferView": 0,
      "componentType": 5125,
      "count": 108,
      "max": [
        37
      ],
      "min": [
        0
      ],
      "type": "SCALAR"
    },
    {
      "bufferView": 2,
      "byteOffset": 912,
      "componentType": 5126,
      "count": 301,
      "max": [
        0.18556499481201172,
        1,
        0.26381000876426697
      ],
      "min": [
        -0.26787999272346497,
        -0.90263897180557251,
        -0.26381000876426697
      ],
      "type": "VEC3"
    },
    {
      "bufferView": 2,
      "byteOffset": 4524,
      "componentType": 5126,
      "count": 301,
      "max": [
        0.99960821866989136,
        0.98684245347976685,
        0.98480474948883057
      ],
      "min": [
        -0.99999690055847168,
        -0.8815644383430481,
        -0.98480463027954102
      ],
      "type": "VEC3"
    },
    {
      "bufferView": 3,
      "byteOffset": 608,
      "componentType": 5126,
      "count": 301,
      "max": [
        0.98615145683288574,
        0.88700485229492188,
        1,
        1
      ],
      "min": [
        -0.98615199327468872,
        -0.99960821866989136,
        -0.9998784065246582,
        1
      ],
      "type": "VEC4"
    },
    {
      "bufferView": 1,
      "byteOffset": 304,
      "componentType": 5126,
      "count": 301,
      "max": [
        0.9615439772605896,
        0.90692901611328125
      ],
      "min": [
        0.019999999552965164,
        0.037896100431680679
      ],
      "type": "VEC2"
    },
    {
      "bufferView": 0,
      "byteOffset": 432,
      "componentType": 5125,
      "count": 1398,
      "max": [
        300
      ],
      "min": [
        0
      ],
      "type": "SCALAR"
    },
    {
      "bufferView": 2,
      "byteOffset": 8136,
      "componentType": 5126,
      "count": 297,
      "max": [
        0.26850500702857971,
        0.21874399483203888,
        0.26442599296569824
      ],
      "min": [
        -0.26850500702857971,
        -1,
        -0.26442599296569824
      ],
      "type": "VEC3"
    },
    {
      "bufferView": 2,
      "byteOffset": 11700,
      "componentType": 5126,
      "count": 297,
      "max": [
        0.99999690055847168,
        0.25296390056610107,
        0.98480474948883057
      ],
      "min": [
        -0.99999690055847168,
        -1,
        -0.98480474948883057
      ],
      "type": "VEC3"
    },
    {
      "bufferView": 3,
      "byteOffset": 5424,
      "componentType": 5126,
      "count": 297,
      "max": [
        0.98611468076705933,
        0.56024229526519775,
        1,
        1
      ],
      "min": [
        -0.98612511157989502,
        -0.56024128198623657,
        -1,
        1
      ],
      "type": "VEC4"
    },
    {
      "bufferView": 1,
      "byteOffset": 2712,
      "componentType": 5126,
      "count": 297,
      "max": [
        0.98000001907348633,
        0.65270799398422241
      ],
      "min": [
        0.019999999552965164,
        0.019999999552965164
      ],
      "type": "VEC2"
    },
    {
      "bufferView": 0,
      "byteOffset": 6024,
      "componentType": 5125,
      "count": 1290,
      "max": [
        296
      ],
      "min": [
        0
      ],
      "type": "SCALAR"
    }
  ],
  "asset": {
    "extras": {
      "author": "vdkpcf (https://sketchfab.com/vdkpcf)",
      "license": "CC-BY-4.0 (http://creativecommons.org/licenses/by/4.0/)",
      "source": "https://sketchfab.com/3d-models/champagne-9f072cd2ae994511b107c40b05c72b1d",
      "title": "Champagne"
    },
    "generator": "Sketchfab-7.62.0",
    "version": "2.0"
  },
  "bufferViews": [
    {
      "buffer": 0,
      "byteLength": 11184,
      "byteOffset": 0,
      "name": "floatBufferViews",
      "target": 34963
    },
    {
      "buffer": 0,
      "byteLength": 5088,
      "byteOffset": 11184,
      "byteStride": 8,
      "name": "floatBufferViews",
      "target": 34962
    },
    {
      "buffer": 0,
      "byteLength": 15264,
      "byteOffset": 16272,
      "byteStride": 12,
      "name": "floatBufferViews",
      "target": 34962
    },
    {
      "buffer": 0,
      "byteLength": 10176,
      "byteOffset": 31536,
      "byteStride": 16,
      "name": "floatBufferViews",
      "target": 34962
    }
  ],
  "buffers": [
    {
      "byteLength": 41712,
      "uri": "champ.bin"
    }
  ],
  "images": [
    {
      "uri": "champ/bouteille_baseColor.jpeg"
    },
    {
      "uri": "champ/bouteille_metallicRoughness.png"
    },
    {
      "uri": "champ/bouteille_normal.png"
    },
    {
      "uri": "champ/etiquette_baseColor.jpeg"
    },
    {
      "uri": "champ/etiquette_metallicRoughness.png"
    },
    {
      "uri": "champ/etiquette_normal.png"
    },
    {
      "uri": "champ/etiquettedorrure_baseColor.jpeg"
    },
    {
      "uri": "champ/etiquettedorrure_metallicRoughness.png"
    },
    {
      "uri": "champ/etiquettedorrure_normal.png"
    }
  ],
  "materials": [
    {
      "doubleSided": true,
      "name": "bouteille",
      "normalTexture": {
        "index": 2,
        "scale": 1,
        "texCoord": 0
      },
      "occlusionTexture": {
        "index": 1,
        "strength": 1,
        "texCoord": 0
      },
      "pbrMetallicRoughness": {
        "baseColorFactor": [
          1,
          1,
          1,
          1
        ],
        "baseColorTexture": {
          "index": 0,
          "texCoord": 0
        },
        "metallicFactor": 1,
        "metallicRoughnessTexture": {
          "index": 1,
          "texCoord": 0
        },
        "roughnessFactor": 1
      }
    },
    {
      "doubleSided": true,
      "name": "etiquette",
      "normalTexture": {
        "index": 5,
        "scale": 1,
        "texCoord": 0
      },
      "occlusionTexture": {
        "index": 4,
        "strength": 1,
        "texCoord": 0
      },
      "pbrMetallicRoughness": {
        "baseColorFactor": [
          1,
          1,
          1,
          1
        ],
        "baseColorTexture": {
          "index": 3,
          "texCoord": 0
        },
        "metallicFactor": 1,
        "metallicRoughnessTexture": {
          "index": 4,
          "texCoord": 0
        },
        "roughnessFactor": 1
      }
    },
    {
      "doubleSided": true,
      "name": "etiquettedorrure",
      "normalTexture": {
        "index": 8,
        "scale": 1,
        "texCoord": 0
      },
      "occlusionTexture": {
        "index": 7,
        "strength": 1,
        "texCoord": 0
      },
      "pbrMetallicRoughness": {
        "baseColorFactor": [
          1,
          1,
          1,
          1
        ],
        "baseColorTexture": {
          "index": 6,
          "texCoord": 0
        },
        "metallicFactor": 1,
        "metallicRoughnessTexture": {
          "index": 7,
          "texCoord": 0
        },
        "roughnessFactor": 1
      }
    }
  ],
  "meshes": [
    {
      "name": "defaultMaterial",
      "primitives": [
        {
          "attributes": {
            "NORMAL": 1,
            "POSITION": 0,
            "TANGENT": 2,
            "TEXCOORD_0": 3
          },
          "indices": 4,
          "material": 2,
          "mode": 4
        }
      ]
    },
    {
      "name": "defaultMaterial",
      "primitives": [
        {
          "attributes": {
            "NORMAL": 6,
            "POSITION": 5,
            "TANGENT": 7,
            "TEXCOORD_0": 8
          },
          "indices": 9,
          "material": 1,
          "mode": 4
        }
      ]
    },
    {
      "name": "defaultMaterial",
      "primitives": [
        {
          "attributes": {
            "NORMAL": 11,
            "POSITION": 10,
            "TANGENT": 12,
            "TEXCOORD_0": 13
          },
          "indices": 14,
          "material": 0,
          "mode": 4
        }
      ]
    }
  ],
  "nodes": [
    {
      "children": [
        1
      ],
      "name": "RootNode (gltf orientation matrix)",
      "rotation": [
        -0.70710678118654746,
        -0,
        -0,
        0.70710678118654757
      ]
    },
    {
      "children": [
        2
      ],
      "name": "RootNode (model correction matrix)"
    },
    {
      "children": [
        3,
        5,
        7
      ],
      "matrix": [
        1,
        0,
        0,
        0,
        0,
        -4.3711390063094768e-08,
        0.999999999999999,
        0,
        0,
        -0.999999999999999,
        -4.3711390063094768e-08,
        0,
        0,
        0,
        0,
        1
      ],
      "name": "Collada visual scene group"
    },
    {
      "children": [
        4
      ],
      "name": "Cylinder004"
    },
    {
      "mesh": 0,
      "name": "defaultMaterial"
    },
    {
      "children": [
        6
      ],
      "name": "Cylinder004"
    },
    {
      "mesh": 1,
      "name": "defaultMaterial"
    },
    {
      "children": [
        8
      ],
      "name": "Cylinder004"
    },
    {
      "mesh": 2,
      "name": "defaultMaterial"
    }
  ],
  "samplers": [
    {
      "magFilter": 9729,
      "minFilter": 9987,
      "wrapS": 10497,
      "wrapT": 10497
    }
  ],
  "scene": 0,
  "scenes": [
    {
      "name": "OSG_Scene",
      "nodes": [
        0
      ]
    }
  ],
  "textures": [
    {
      "sampler": 0,
      "source": 0
    },
    {
      "sampler": 0,
      "source": 1
    },
    {
      "sampler": 0,
      "source": 2
    },
    {
      "sampler": 0,
      "source": 3
    },
    {
      "sampler": 0,
      "source": 4
    },
    {
      "sampler": 0,
      "source": 5
    },
    {
      "sampler": 0,
      "source": 6
    },
    {
      "sampler": 0,
      "source": 7
    },
    {
      "sampler": 0,
      "source": 8
    }
  ]
}

