{
  "accessors": [
    {
      "bufferView": 2,
      "componentType": 5126,
      "count": 36410,
      "max": [
        2.9965729713439941,
        2.0526750087738037,
        1.2344269752502441
      ],
      "min": [
        -2.9965729713439941,
        -2.0526750087738037,
        -1.2344269752502441
      ],
      "type": "VEC3"
    },
    {
      "bufferView": 2,
      "byteOffset": 436920,
      "componentType": 5126,
      "count": 36410,
      "max": [
        0.99997705221176147,
        0.99998313188552856,
        0.99999260902404785
      ],
      "min": [
        -0.99995368719100952,
        -0.99992531538009644,
        -0.99998652935028076
      ],
      "type": "VEC3"
    },
    {
      "bufferView": 3,
      "componentType": 5126,
      "count": 36410,
      "max": [
        0.99996596574783325,
        0.99999725818634033,
        0.99999397993087769,
        1
      ],
      "min": [
        -0.99998408555984497,
        -0.99999052286148071,
        -0.99999666213989258,
        -1
      ],
      "type": "VEC4"
    },
    {
      "bufferView": 1,
      "componentType": 5126,
      "count": 36410,
      "max": [
        0.99694901704788208,
        1.000298023223877
      ],
      "min": [
        9.5000003057066351e-05,
        0.0039059999398887157
      ],
      "type": "VEC2"
    },
    {
      "bufferView": 0,
      "componentType": 5125,
      "count": 162975,
      "max": [
        36409
      ],
      "min": [
        0
      ],
      "type": "SCALAR"
    }
  ],
  "asset": {
    "extras": {
      "author": "Yu (https://sketchfab.com/FFT_kedar)",
      "license": "CC-BY-4.0 (http://creativecommons.org/licenses/by/4.0/)",
      "source": "https://sketchfab.com/3d-models/granblue-fantasy-mcdonalds-ca0dcbfbd24d4ea199742cc17e2e4260",
      "title": "Granblue Fantasy × McDonald's"
    },
    "generator": "Sketchfab-5.72.0",
    "version": "2.0"
  },
  "bufferViews": [
    {
      "buffer": 0,
      "byteLength": 651900,
      "byteOffset": 0,
      "name": "floatBufferViews",
      "target": 34963
    },
    {
      "buffer": 0,
      "byteLength": 291280,
      "byteOffset": 651900,
      "byteStride": 8,
      "name": "floatBufferViews",
      "target": 34962
    },
    {
      "buffer": 0,
      "byteLength": 873840,
      "byteOffset": 943180,
      "byteStride": 12,
      "name": "floatBufferViews",
      "target": 34962
    },
    {
      "buffer": 0,
      "byteLength": 582560,
      "byteOffset": 1817020,
      "byteStride": 16,
      "name": "floatBufferViews",
      "target": 34962
    }
  ],
  "buffers": [
    {
      "byteLength": 2399580,
      "uri": "mac.bin"
    }
  ],
  "extensionsRequired": [
    "KHR_materials_pbrSpecularGlossiness"
  ],
  "extensionsUsed": [
    "KHR_materials_pbrSpecularGlossiness"
  ],
  "images": [
    {
      "uri": "mac/model_diffuse.jpeg"
    }
  ],
  "materials": [
    {
      "doubleSided": true,
      "extensions": {
        "KHR_materials_pbrSpecularGlossiness": {
          "diffuseFactor": [
            1,
            1,
            1,
            1
          ],
          "diffuseTexture": {
            "index": 0,
            "texCoord": 0
          },
          "glossinessFactor": 0.52560605140000005,
          "specularFactor": [
            0,
            0,
            0
          ]
        }
      },
      "name": "model"
    }
  ],
  "meshes": [
    {
      "primitives": [
        {
          "attributes": {
            "NORMAL": 1,
            "POSITION": 0,
            "TANGENT": 2,
            "TEXCOORD_0": 3
          },
          "indices": 4,
          "material": 0,
          "mode": 4
        }
      ]
    }
  ],
  "nodes": [
    {
      "children": [
        1
      ],
      "name": "RootNode (gltf orientation matrix)",
      "rotation": [
        -0.70710678118654746,
        -0,
        -0,
        0.70710678118654757
      ]
    },
    {
      "children": [
        2
      ],
      "matrix": [
        -0.99998503923416138,
        0.0054704742506146431,
        0,
        0,
        -0.0054704742506146431,
        -0.99998503923416138,
        0,
        0,
        0,
        0,
        1,
        0,
        9.7333995654480532e-06,
        -1.5285400877473876e-05,
        0,
        1
      ],
      "name": "RootNode (model correction matrix)"
    },
    {
      "children": [
        3
      ],
      "name": "model.obj.cleaner.materialmerger.gles"
    },
    {
      "mesh": 0,
      "name": ""
    }
  ],
  "samplers": [
    {
      "magFilter": 9729,
      "minFilter": 9987,
      "wrapS": 10497,
      "wrapT": 10497
    }
  ],
  "scene": 0,
  "scenes": [
    {
      "name": "OSG_Scene",
      "nodes": [
        0
      ]
    }
  ],
  "textures": [
    {
      "sampler": 0,
      "source": 0
    }
  ]
}

